<svg xmlns="http://www.w3.org/2000/svg" width="24" height="25" viewBox="0 0 24 25">
  <g id="Group_50668" data-name="Group 50668" transform="translate(-1596 -1206)">
    <g id="Group_50658" data-name="Group 50658" transform="translate(1566 1180)">
      <path id="Path_97391" data-name="Path 97391" d="M53.515,30.9l-11.2-4.839a.8.8,0,0,0-.63,0L30.485,30.9a.807.807,0,0,0-.485.741v13.71a.807.807,0,0,0,.485.741l11.2,4.839h0a.786.786,0,0,0,.63,0l11.2-4.839A.807.807,0,0,0,54,45.355V31.645A.807.807,0,0,0,53.515,30.9ZM42,27.684l9.169,3.961L42,35.607l-9.169-3.961ZM31.6,44.823V32.868l9.6,4.147V48.971Zm11.2,4.147V37.016l9.6-4.147V44.823Z" transform="translate(0 0)" fill="#fff"/>
    </g>
  </g>
</svg>
