<svg xmlns="http://www.w3.org/2000/svg" xmlns:xlink="http://www.w3.org/1999/xlink" width="56" height="56" viewBox="0 0 56 56"><defs><linearGradient id="a" x1="1.353" y1="1.255" x2="-0.109" y2="-0.039" gradientUnits="objectBoundingBox"><stop offset="0.098" stop-color="#bc47ed"/><stop offset="0.288" stop-color="#9f49ed"/><stop offset="0.772" stop-color="#5a4fee"/><stop offset="0.999" stop-color="#4052ef"/></linearGradient><linearGradient id="b" x1="0.124" y1="1.355" x2="2.6" y2="-2.851" gradientUnits="objectBoundingBox"><stop offset="0" stop-color="#fff"/><stop offset="1" stop-color="#9251f9"/></linearGradient><filter id="c" x="4.582" y="18.511" width="28.608" height="28.608" filterUnits="userSpaceOnUse"><feOffset input="SourceAlpha"/><feGaussianBlur stdDeviation="2.5" result="d"/><feFlood flood-color="#936eec" flood-opacity="0.09"/><feComposite operator="in" in2="d"/><feComposite in="SourceGraphic"/></filter><linearGradient id="e" x1="0.925" y1="0.966" x2="-0.874" y2="-1.007" xlink:href="#a"/><linearGradient id="f" x1="-0.374" y1="1.585" x2="0.984" y2="-0.101" xlink:href="#a"/><linearGradient id="g" x1="1" y1="8.837" x2="0" y2="-0.985" gradientUnits="objectBoundingBox"><stop offset="0" stop-color="#5f4eee"/><stop offset="1" stop-color="#9649ed"/></linearGradient><linearGradient id="j" x1="0.947" y1="1" x2="0.147" y2="-1.673" gradientUnits="objectBoundingBox"><stop offset="0" stop-color="#bfbfff" stop-opacity="0.859"/><stop offset="0.694" stop-color="#f7f7fb"/><stop offset="0.999" stop-color="#fff"/><stop offset="1" stop-color="#fff"/></linearGradient><clipPath id="l"><rect width="56" height="56"/></clipPath></defs><g id="k" clip-path="url(#l)"><g transform="translate(-1097.188 -417.563)"><rect width="56" height="56" rx="10" transform="translate(1097.188 417.563)" fill="url(#a)"/><rect width="42.498" height="16.006" rx="3.977" transform="translate(1104.364 442.375)" fill="url(#b)"/><g transform="matrix(1, 0, 0, 1, 1097.19, 417.56)" filter="url(#c)"><circle cx="6.804" cy="6.804" r="6.804" transform="translate(12.08 26.01)" fill="#fff"/></g><circle cx="5.794" cy="5.794" r="5.794" transform="translate(1110.28 444.584)" fill="url(#e)"/><circle cx="4.72" cy="4.72" r="4.72" transform="translate(1111.354 445.658)" fill="url(#f)"/><rect width="12.047" height="1.594" rx="0.797" transform="translate(1129.672 445.784)" fill="url(#g)"/><rect width="12.047" height="1.594" rx="0.797" transform="translate(1129.672 449.581)" fill="url(#g)"/><rect width="12.047" height="1.594" rx="0.797" transform="translate(1129.672 453.378)" fill="url(#g)"/><path d="M1142.493,440.792a.182.182,0,0,0,.078-.345l-4.939-2.5a9.138,9.138,0,0,0-3.595-.837h-16.848a9.134,9.134,0,0,0-3.594.837l-4.939,2.5a.182.182,0,0,0,.078.345C1113.378,440.79,1137.849,440.79,1142.493,440.792Z" fill="url(#j)"/></g></g></svg>